# Blender 3.6.2
# www.blender.org
mtllib stalactiteLarge.mtl
o stalactite_large
v 0.000000 100.000000 160.897018
v -70.708412 70.710678 160.331390
v -99.996796 0.000000 160.097092
v -70.708412 -70.710678 160.331390
v -0.000000 -100.000000 160.897018
v 70.708412 -70.710678 161.462646
v 99.996796 -0.000000 161.696930
v 70.708412 70.710678 161.462646
v -1.676391 80.226364 371.820679
v -58.405018 56.728596 371.835602
v -81.902786 -0.000029 371.841827
v -58.405018 -56.728657 371.835602
v -1.676391 -80.226418 371.820679
v 55.052227 -56.728657 371.805634
v 78.549980 -0.000029 371.799469
v 55.052227 56.728596 371.805634
v -3.233021 59.256023 556.981689
v -45.127674 41.900318 556.289978
v -62.481014 -0.000053 556.003418
v -45.127674 -41.900425 556.289978
v -3.233021 -59.256130 556.981689
v 38.661629 -41.900425 557.673401
v 56.014969 -0.000053 557.959961
v 38.661629 41.900318 557.673401
v -5.715790 16.629583 900.410095
v -17.468479 11.758859 900.026123
v -22.336601 -0.000097 899.867249
v -17.468479 -11.759052 900.026123
v -5.715790 -16.629774 900.410095
v 6.036899 -11.759052 900.793823
v 10.905019 -0.000097 900.952698
v 6.036899 11.758859 900.793823
v -3.977925 5.510507 973.117798
v -11.770142 2.282465 972.994995
v -7.393216 -2.672773 980.692078
v -8.542500 -5.510720 973.045898
v -3.613965 -1.107162 980.751587
v -0.750283 -2.282677 973.168579
v -5.179382 2.672557 980.726990
v -8.958632 1.106946 980.667480
v 31.921309 -0.000077 735.204346
v 21.158909 25.990013 734.962524
v -4.823837 -36.755611 734.378906
v 21.158909 -25.990168 734.962524
v -41.568989 -0.000077 733.553406
v -30.806583 -25.990168 733.795227
v -4.823837 36.755459 734.378906
v -30.806583 25.990013 733.795227
v 0.000000 140.520248 84.478607
v -99.359657 99.362839 83.683784
v -140.515762 0.000004 83.354561
v -99.359657 -99.362823 83.683784
v -0.000000 -140.520279 84.478607
v 99.359657 -99.362823 85.273430
v 140.515762 0.000003 85.602646
v 99.359657 99.362839 85.273430
v 0.000000 219.321747 0.649464
v -155.078934 155.083923 -0.591081
v -219.314758 0.000005 -1.104918
v -155.078934 -155.083908 -0.591081
v -0.000000 -219.321777 0.649464
v 155.078934 -155.083908 1.890010
v 219.314758 0.000005 2.403858
v 155.078934 155.083923 1.890010
vn -0.6758 0.6745 0.2974
vn -0.7040 0.7035 0.0971
vn -0.0006 0.9947 0.1027
vn -0.0013 0.9538 0.3005
vn 0.7027 0.7032 0.1083
vn 0.6731 0.6744 0.3036
vn 0.9524 -0.0000 0.3048
vn 0.9939 -0.0000 0.1106
vn 0.7027 -0.7032 0.1083
vn 0.6731 -0.6744 0.3036
vn -0.0013 -0.9538 0.3005
vn -0.0006 -0.9947 0.1027
vn -0.7040 -0.7035 0.0971
vn -0.6758 -0.6745 0.2974
vn -0.9552 -0.0000 0.2961
vn -0.9955 -0.0000 0.0948
vn -0.7033 0.7019 0.1131
vn -0.0014 0.9929 0.1190
vn 0.7009 0.7023 0.1249
vn 0.9919 -0.0000 0.1273
vn 0.7009 -0.7023 0.1249
vn -0.0014 -0.9929 0.1190
vn -0.7033 -0.7019 0.1131
vn -0.9939 -0.0000 0.1107
vn 0.6998 0.7027 0.1283
vn 0.7011 0.6992 0.1402
vn 0.9898 0.0034 0.1422
vn 0.9915 -0.0000 0.1304
vn 0.6998 -0.7027 0.1283
vn 0.6962 -0.7040 0.1403
vn 0.0004 -0.9908 0.1353
vn -0.0029 -0.9924 0.1232
vn -0.7036 -0.7007 0.1180
vn -0.7050 -0.6971 0.1306
vn -0.9917 -0.0035 0.1285
vn -0.9933 -0.0000 0.1159
vn -0.7036 0.7007 0.1180
vn -0.7002 0.7019 0.1305
vn -0.0064 0.9908 0.1354
vn -0.0029 0.9924 0.1232
vn -0.8892 0.3665 0.2738
vn 0.3632 0.8877 0.2831
vn 0.8844 -0.3682 0.2869
vn -0.3714 -0.8860 0.2776
vn 0.6360 -0.2661 0.7244
vn -0.2731 -0.6435 0.7150
vn -0.6504 0.2667 0.7112
vn 0.2598 0.6429 0.7205
vn -0.5699 -0.5654 0.5963
vn -0.0045 -0.8016 0.5978
vn -0.5699 0.5654 0.5963
vn -0.8033 -0.0000 0.5956
vn 0.8000 -0.0000 0.6001
vn 0.5637 0.5683 0.5994
vn 0.5637 -0.5683 0.5994
vn -0.0045 0.8016 0.5978
vn 0.7260 -0.0000 0.6876
vn 0.5108 0.5171 0.6868
vn -0.0063 -0.7286 0.6849
vn 0.5108 -0.5171 0.6868
vn -0.7312 -0.0000 0.6822
vn -0.5196 -0.5133 0.6830
vn -0.0063 0.7286 0.6849
vn -0.5196 0.5133 0.6830
vt 0.427985 0.164419
vt 0.440516 0.379832
vt 0.498293 0.379817
vt 0.500000 0.164995
vt 0.556070 0.379801
vt 0.572015 0.165572
vt 0.500000 0.165810
vt 0.500000 0.379795
vt 0.442223 0.379801
vt 0.427983 0.165572
vt 0.500000 0.164181
vt 0.500000 0.379838
vt 0.557777 0.379832
vt 0.572017 0.164419
vt 0.572017 0.165572
vt 0.557777 0.379801
vt 0.427983 0.164419
vt 0.442223 0.379832
vt 0.454038 0.567695
vt 0.496707 0.568399
vt 0.539376 0.569104
vt 0.500000 0.569396
vt 0.457325 0.569104
vt 0.500000 0.567403
vt 0.542675 0.567695
vt 0.542675 0.569104
vt 0.457325 0.567695
vt 0.526470 0.749669
vt 0.511976 0.918565
vt 0.500000 0.918727
vt 0.500000 0.749915
vt 0.521550 0.749669
vt 0.506148 0.918565
vt 0.494179 0.918174
vt 0.495087 0.749075
vt 0.473530 0.748480
vt 0.488024 0.917783
vt 0.500000 0.917621
vt 0.500000 0.748234
vt 0.468624 0.748480
vt 0.482209 0.917783
vt 0.488024 0.918565
vt 0.473530 0.749669
vt 0.511976 0.917783
vt 0.526470 0.748480
vt 0.502325 0.992100
vt 0.505612 0.992225
vt 0.497675 0.992277
vt 0.499236 0.992277
vt 0.491300 0.992152
vt 0.494387 0.992152
vt 0.488012 0.992100
vt 0.495949 0.992225
vt 0.496319 1.000000
vt 0.492470 0.999939
vt 0.490876 0.501127
vt 0.492470 0.497278
vt 0.496319 0.498872
vt 0.494725 0.502722
vt 0.497278 0.999939
vt 0.501127 0.999914
vt 0.490876 0.999914
vt 0.494725 0.999975
vt 0.502722 0.999975
vt 0.498872 1.000000
vt 0.398804 0.086355
vt 0.500000 0.087165
vt 0.601199 0.086355
vt 0.500000 0.086020
vt 0.500000 0.088310
vt 0.601199 0.087974
vt 0.601196 0.087974
vt 0.398801 0.086355
vt 0.398801 0.087974
vt 0.500000 0.003574
vt 0.657950 0.003050
vt 0.500000 0.001787
vt 0.657945 0.003050
vt 0.500000 -0.000000
vt 0.342050 0.000523
vt 0.342055 0.000523
vt 0.342050 0.003050
vt 0.657950 0.000523
s 1
usemtl Material.001
f 2/1/1 10/2/2 9/3/3 1/4/4
f 1/4/4 9/3/3 16/5/5 8/6/6
f 7/7/7 15/8/8 14/9/9 6/10/10
f 5/4/11 13/3/12 12/2/13 4/1/14
f 3/11/15 11/12/16 10/13/2 2/14/1
f 8/15/6 16/16/5 15/8/8 7/7/7
f 6/6/10 14/5/9 13/3/12 5/4/11
f 4/17/14 12/18/13 11/12/16 3/11/15
f 10/2/2 18/19/17 17/20/18 9/3/3
f 9/3/3 17/20/18 24/21/19 16/5/5
f 15/8/8 23/22/20 22/23/21 14/9/9
f 13/3/12 21/20/22 20/19/23 12/2/13
f 11/12/16 19/24/24 18/25/17 10/13/2
f 16/16/5 24/26/19 23/22/20 15/8/8
f 14/5/9 22/21/21 21/20/22 13/3/12
f 12/18/13 20/27/23 19/24/24 11/12/16
f 42/28/25 32/29/26 31/30/27 41/31/28
f 44/32/29 30/33/30 29/34/31 43/35/32
f 46/36/33 28/37/34 27/38/35 45/39/36
f 48/40/37 26/41/38 25/34/39 47/35/40
f 47/35/40 25/34/39 32/33/26 42/32/25
f 41/31/28 31/30/27 30/42/30 44/43/29
f 43/35/32 29/34/31 28/41/34 46/40/33
f 45/39/36 27/38/35 26/44/38 48/45/37
f 27/38/35 34/46/41 26/44/38
f 32/29/26 33/47/42 38/48/43 31/30/27
f 30/33/30 38/49/43 36/50/44 29/34/31
f 28/37/34 36/51/44 34/46/41 27/38/35
f 26/41/38 34/52/41 33/53/42 25/34/39
f 25/34/39 33/53/42 32/33/26
f 31/30/27 38/48/43 30/42/30
f 29/34/31 36/50/44 28/41/34
f 38/49/43 37/54/45 35/55/46 36/50/44
f 40/56/47 35/57/46 37/58/45 39/59/48
f 36/51/44 35/60/46 40/61/47 34/46/41
f 34/52/41 40/62/47 39/63/48 33/53/42
f 33/47/42 39/64/48 37/65/45 38/48/43
f 19/24/24 45/39/36 48/45/37 18/25/17
f 21/20/22 43/35/32 46/40/33 20/19/23
f 23/22/20 41/31/28 44/43/29 22/23/21
f 17/20/18 47/35/40 42/32/25 24/21/19
f 18/19/17 48/40/37 47/35/40 17/20/18
f 20/27/23 46/36/33 45/39/36 19/24/24
f 22/21/21 44/32/29 43/35/32 21/20/22
f 24/26/19 42/28/25 41/31/28 23/22/20
f 4/1/14 52/66/49 53/67/50 5/4/11
f 2/14/1 50/68/51 51/69/52 3/11/15
f 7/7/7 55/70/53 56/71/54 8/15/6
f 5/4/11 53/67/50 54/72/55 6/6/10
f 3/11/15 51/69/52 52/73/49 4/17/14
f 1/4/4 49/67/56 50/66/51 2/1/1
f 8/6/6 56/72/54 49/67/56 1/4/4
f 6/10/10 54/74/55 55/70/53 7/7/7
f 55/70/53 63/75/57 64/76/58 56/71/54
f 53/67/50 61/77/59 62/78/60 54/72/55
f 51/69/52 59/79/61 60/80/62 52/73/49
f 49/67/56 57/77/63 58/81/64 50/66/51
f 56/72/54 64/78/58 57/77/63 49/67/56
f 54/74/55 62/82/60 63/75/57 55/70/53
f 52/66/49 60/81/62 61/77/59 53/67/50
f 50/68/51 58/83/64 59/79/61 51/69/52
