# Blender 3.6.2
# www.blender.org
mtllib stalactiteSmall.mtl
o stalactite_small
v -1.273326 75.115639 -3.220389
v -54.380871 53.114773 -4.097310
v -76.378738 -0.000025 -4.460560
v -54.380871 -53.114819 -4.097310
v -1.273326 -75.115685 -3.220389
v 51.834213 -53.114819 -2.343620
v 73.832092 -0.000025 -1.980339
v 51.834213 53.114773 -2.343620
v -3.756094 16.629610 340.207916
v -15.508783 11.758887 339.824066
v -20.376905 -0.000069 339.665070
v -15.508783 -11.759024 339.824066
v -3.756094 -16.629745 340.207916
v 7.996595 -11.759024 340.591705
v 12.864715 -0.000069 340.750702
v 7.996595 11.758887 340.591705
v -2.018229 5.510535 412.915649
v -9.810445 2.282493 412.792908
v -5.433519 -2.672744 420.489929
v -6.582804 -5.510692 412.843750
v -1.654269 -1.107134 420.549438
v 1.209413 -2.282649 412.966492
v -3.219686 2.672585 420.524841
v -6.998935 1.106974 420.465332
v 33.881004 -0.000048 175.002182
v 23.118605 25.990042 174.760376
v -2.864141 -36.755581 174.176773
v 23.118605 -25.990137 174.760376
v -39.609291 -0.000048 173.351273
v -28.846888 -25.990137 173.593079
v -2.864141 36.755486 174.176773
v -28.846888 25.990042 173.593079
v 31.869967 33.945198 86.115814
v 31.869967 -33.945267 86.115814
v -36.007435 -33.945267 84.840454
v -36.007435 33.945198 84.840454
v 45.927834 -0.000037 86.380005
v -2.068733 -48.005844 85.478188
v -50.065304 -0.000036 84.576271
v -2.068733 48.005772 85.478188
v 34.447895 36.124619 41.757275
v 34.447895 -36.124680 41.757275
v -37.789963 -36.124680 40.500404
v -37.789963 36.124619 40.500404
v 49.408848 -0.000031 42.017639
v -1.671033 -51.087994 41.128891
v -52.750916 -0.000031 40.240059
v -1.671033 51.087933 41.128891
vn 0.6998 0.7027 0.1283
vn 0.7011 0.6992 0.1402
vn 0.9898 0.0034 0.1422
vn 0.9915 -0.0000 0.1304
vn 0.6998 -0.7027 0.1283
vn 0.6962 -0.7040 0.1403
vn 0.0004 -0.9908 0.1353
vn -0.0030 -0.9924 0.1232
vn -0.7037 -0.7006 0.1180
vn -0.7050 -0.6971 0.1306
vn -0.9917 -0.0035 0.1285
vn -0.9933 -0.0000 0.1159
vn -0.7037 0.7006 0.1180
vn -0.7002 0.7019 0.1305
vn -0.0064 0.9908 0.1354
vn -0.0030 0.9924 0.1232
vn -0.8892 0.3665 0.2738
vn 0.3632 0.8877 0.2831
vn 0.8844 -0.3682 0.2869
vn -0.3714 -0.8860 0.2776
vn 0.6360 -0.2661 0.7244
vn -0.2731 -0.6435 0.7150
vn -0.6504 0.2667 0.7112
vn 0.2598 0.6429 0.7205
vn -0.9961 -0.0000 0.0880
vn -0.7051 0.7033 0.0906
vn -0.0017 -0.9953 0.0969
vn -0.7051 -0.7033 0.0906
vn 0.9944 -0.0000 0.1059
vn 0.7025 -0.7042 0.1033
vn -0.0017 0.9953 0.0969
vn 0.7025 0.7042 0.1033
vn 0.6720 0.6769 0.3004
vn 0.9530 -0.0000 0.3030
vn 0.6720 -0.6769 0.3003
vn -0.0049 -0.9558 0.2941
vn -0.6796 -0.6747 0.2878
vn -0.9585 -0.0000 0.2852
vn -0.6796 0.6747 0.2878
vn -0.0049 0.9558 0.2941
vn -0.8841 -0.0000 0.4672
vn -0.6288 0.6196 0.4699
vn -0.0092 -0.8792 0.4763
vn -0.6288 -0.6196 0.4699
vn 0.8743 -0.0000 0.4854
vn 0.6146 -0.6239 0.4827
vn -0.0092 0.8792 0.4763
vn 0.6146 0.6239 0.4827
vt 0.561189 0.421330
vt 0.527684 0.811753
vt 0.500000 0.812127
vt 0.500000 0.421899
vt 0.557427 0.421330
vt 0.521824 0.811753
vt 0.494155 0.810849
vt 0.496255 0.419956
vt 0.438811 0.418582
vt 0.472315 0.809945
vt 0.500000 0.809571
vt 0.500000 0.418012
vt 0.435083 0.418582
vt 0.466485 0.809945
vt 0.472315 0.811753
vt 0.438811 0.421330
vt 0.527684 0.809945
vt 0.561189 0.418582
vt 0.505374 0.981739
vt 0.512974 0.982028
vt 0.494626 0.982147
vt 0.505845 0.982147
vt 0.487500 0.981858
vt 0.487026 0.981858
vt 0.479901 0.981739
vt 0.498246 0.982028
vt 0.499103 1.000000
vt 0.490205 0.999860
vt 0.486520 0.502606
vt 0.490205 0.493708
vt 0.499103 0.497393
vt 0.495418 0.506292
vt 0.493708 0.999860
vt 0.502606 0.999802
vt 0.486520 0.999802
vt 0.495418 0.999942
vt 0.506292 0.999942
vt 0.497393 1.000000
vt 0.500000 0.209006
vt 0.579919 0.209628
vt 0.498127 0.211130
vt 0.419153 0.209628
vt 0.500000 0.213253
vt 0.420081 0.212631
vt 0.498127 0.211130
vt 0.578974 0.212631
vt 0.418224 0.209628
vt 0.578030 0.212631
vt 0.588808 0.108281
vt 0.500000 0.108930
vt 0.588332 0.108281
vt 0.499064 0.106716
vt 0.410256 0.105151
vt 0.500000 0.104503
vt 0.409795 0.105151
vt 0.499064 0.106716
vt 0.410717 0.108281
vt 0.589283 0.105151
vt 0.500000 0.000000
vt 0.598648 0.000675
vt 0.500000 0.002303
vt 0.401366 0.000675
vt 0.500000 0.004606
vt 0.401352 0.003932
vt 0.598634 0.003932
vt 0.401352 0.000675
vt 0.598648 0.003932
s 1
usemtl Material.001
f 26/1/1 16/2/2 15/3/3 25/4/4
f 28/5/5 14/6/6 13/7/7 27/8/8
f 30/9/9 12/10/10 11/11/11 29/12/12
f 32/13/13 10/14/14 9/7/15 31/8/16
f 31/8/16 9/7/15 16/6/2 26/5/1
f 25/4/4 15/3/3 14/15/6 28/16/5
f 27/8/8 13/7/7 12/14/10 30/13/9
f 29/12/12 11/11/11 10/17/14 32/18/13
f 11/11/11 18/19/17 10/17/14
f 16/2/2 17/20/18 22/21/19 15/3/3
f 14/6/6 22/22/19 20/23/20 13/7/7
f 12/10/10 20/24/20 18/19/17 11/11/11
f 10/14/14 18/25/17 17/26/18 9/7/15
f 9/7/15 17/26/18 16/6/2
f 15/3/3 22/21/19 14/15/6
f 13/7/7 20/23/20 12/14/10
f 22/22/19 21/27/21 19/28/22 20/23/20
f 24/29/23 19/30/22 21/31/21 23/32/24
f 20/24/20 19/33/22 24/34/23 18/19/17
f 18/25/17 24/35/23 23/36/24 17/26/18
f 17/20/18 23/37/24 21/38/21 22/21/19
f 39/39/25 29/12/12 32/18/13 36/40/26
f 38/41/27 27/8/8 30/13/9 35/42/28
f 37/43/29 25/4/4 28/16/5 34/44/30
f 40/45/31 31/8/16 26/5/1 33/46/32
f 36/47/26 32/13/13 31/8/16 40/45/31
f 35/42/28 30/9/9 29/12/12 39/39/25
f 34/48/30 28/5/5 27/8/8 38/41/27
f 33/46/32 26/1/1 25/4/4 37/43/29
f 41/49/33 33/46/32 37/43/29 45/50/34
f 42/51/35 34/48/30 38/41/27 46/52/36
f 43/53/37 35/42/28 39/39/25 47/54/38
f 44/55/39 36/47/26 40/45/31 48/56/40
f 48/56/40 40/45/31 33/46/32 41/49/33
f 45/50/34 37/43/29 34/44/30 42/57/35
f 46/52/36 38/41/27 35/42/28 43/53/37
f 47/54/38 39/39/25 36/40/26 44/58/39
f 3/59/41 47/54/38 44/58/39 2/60/42
f 5/61/43 46/52/36 43/53/37 4/62/44
f 7/63/45 45/50/34 42/57/35 6/64/46
f 1/61/47 48/56/40 41/49/33 8/65/48
f 2/62/42 44/55/39 48/56/40 1/61/47
f 4/66/44 43/53/37 47/54/38 3/59/41
f 6/65/46 42/51/35 46/52/36 5/61/43
f 8/67/48 41/49/33 45/50/34 7/63/45
