# Blender 3.6.2
# www.blender.org
mtllib MapGeo2.mtl
o Cube.013
v -1898.489380 3516.210205 1605.320312
v -1898.489380 3516.210205 1805.320312
v -1779.987305 4209.235352 1346.486450
v -1862.419189 4179.880371 1805.320312
v -300.000000 3460.961914 1605.320312
v -300.000000 3460.961914 1805.320312
v -300.000000 3795.177002 1346.486450
v -300.000000 3795.177002 1805.320312
v -2349.263428 4158.701172 1605.320312
v -2287.532715 3791.962891 1605.320312
v -2287.532715 3791.962891 1805.320312
v -2349.263428 4158.701172 1805.320312
v -1898.489380 8704.876953 1805.320312
v -1832.682861 8704.876953 1085.776611
v -2349.263428 8704.876953 1805.320312
v -2349.263428 8704.876953 1344.610474
v -1039.993652 4054.617676 1221.733032
v -1081.209595 4039.940186 1805.320312
v -1099.244629 3582.703125 1480.566772
v -1099.244629 3582.703125 1805.320312
v -104.810669 3840.534912 1796.213135
v -104.810669 3840.534912 1516.525879
v -104.810669 3636.810303 1674.300903
v -104.810669 3636.810303 1796.213135
v -1937.446777 8907.610352 1801.609863
v -1894.472534 8907.610352 1501.972900
v -2231.820068 8907.610352 1801.609863
v -2231.820068 8907.610352 1671.001831
v -1806.335083 6457.055664 1346.486450
v -1880.454224 6442.378418 1805.320312
v -2418.748047 6431.788574 1805.320312
v -2418.748047 6431.788574 1605.320312
v -1818.453613 7490.942383 1215.068481
v -1888.749756 7483.015625 1805.320312
v -2446.515381 7477.296387 1805.320312
v -2446.515381 7477.296387 1473.902344
v -1913.393433 5281.727051 1805.320312
v -2326.929199 5265.704102 1805.320312
v -2326.929199 5265.704102 1460.675781
v -1835.009766 5303.933105 1201.841919
v -1564.168945 4449.109375 873.086243
v -1682.671143 3756.083984 1131.920166
v -824.175293 4294.491699 748.332764
v -356.860413 3700.835449 1131.920166
v -356.860413 4035.051025 873.086243
v -883.426392 3822.576904 1007.166687
v -2133.445068 4398.574707 1131.920166
v -2071.714600 4031.836670 1131.920166
v -1443.040039 8639.942383 612.376404
v -1959.620605 8639.942383 871.210266
v -1428.810913 7426.008789 741.668213
v -1937.286621 5200.770508 987.275574
v -161.671097 3876.684082 1200.900635
v -161.671097 4080.408447 1043.125732
v -1504.829590 8842.675781 1028.572876
v -1842.177368 8842.675781 1197.601562
v -1445.367065 5238.999023 728.441833
v -1416.692383 6392.122070 873.086243
v -2056.872559 7412.362793 1000.502014
v -2029.105347 6366.854980 1131.920166
vn 0.6631 0.0113 0.7485
vn 0.9196 0.0517 0.3895
vn 0.8173 -0.3556 0.4534
vn 0.6858 0.0586 0.7254
vn 0.2669 0.9134 0.3075
vn 0.1777 0.6818 0.7096
vn 0.0482 0.6250 0.7792
vn -0.1000 0.9518 0.2899
vn 0.2300 -0.7460 0.6249
vn 0.3122 -0.9212 -0.2323
vn 0.8949 -0.4282 -0.1258
vn 0.7281 -0.3155 0.6086
vn -0.0313 -0.9651 -0.2599
vn -0.0231 -0.6784 0.7344
vn -0.2031 -0.7432 0.6375
vn -0.2852 -0.9244 -0.2533
vn -0.9666 -0.0825 -0.2427
vn -0.9417 -0.0046 -0.3364
vn -0.6137 0.0097 -0.7895
vn -0.6941 -0.0577 -0.7176
vn 0.3320 0.2748 0.9023
vn -0.8085 -0.5227 -0.2703
vn -0.6577 -0.4128 0.6301
vn -0.7250 -0.0532 0.6867
vn -0.9428 -0.0116 -0.3332
vn -0.8100 0.4476 -0.3790
vn -0.5223 0.4345 -0.7338
vn -0.6058 -0.0799 -0.7916
vn -0.7147 0.2265 0.6617
vn 0.4885 0.6227 0.6112
vn -0.3954 0.6925 0.6035
vn -0.7184 0.0189 0.6954
vn -0.5829 -0.3413 -0.7374
vn -0.9495 -0.0525 -0.3094
vn -0.6177 -0.0253 -0.7860
vn -0.2093 -0.6664 -0.7156
vn 0.7006 0.6302 0.3348
vn 0.7035 0.7101 -0.0292
vn 0.5226 0.6490 0.5529
vn 0.6001 0.7998 -0.0119
vn -0.4882 0.8672 -0.0981
vn 0.3131 -0.7277 -0.6103
vn 0.8355 -0.3855 -0.3916
vn 0.2862 0.6545 -0.6998
vn 0.4051 0.3246 -0.8547
vn -0.6953 -0.0203 0.7184
vn -0.7119 -0.0375 0.7013
vn 0.6440 0.0080 0.7650
vn 0.6604 -0.0060 0.7509
vn 0.9170 -0.0101 0.3989
vn 0.9230 -0.0039 0.3848
vn 0.8986 0.4195 0.1282
vn -0.2203 0.9136 -0.3418
vn -0.0712 -0.6747 -0.7347
vn 0.5422 0.4325 -0.7204
vn 0.7951 -0.0418 -0.6051
vn 0.6746 0.4121 -0.6125
vn 0.5241 0.7890 -0.3206
vn 0.7418 0.0023 -0.6706
vn 0.8377 -0.0553 -0.5433
vt 0.738446 0.609512
vt 0.739901 0.501142
vt 0.962778 0.477404
vt 0.962778 0.609512
vt 0.543269 0.502366
vt 0.535701 0.609512
vt 0.679131 0.609512
vt 0.679131 0.525270
vt 0.679131 0.572792
vt 0.714967 0.585457
vt 0.714967 0.607840
vt 0.532390 0.549887
vt 0.532390 0.609512
vt 0.385650 0.609512
vt 0.385650 0.572792
vt 0.128104 0.572792
vt 0.331349 0.546235
vt 0.319427 0.459319
vt 0.172145 0.485876
vt 0.535701 0.106300
vt 0.392272 0.131993
vt 0.385650 0.010144
vt 0.532390 0.022352
vt 0.060771 0.572792
vt 0.060771 0.609512
vt 0.128104 0.609512
vt 0.314222 0.609512
vt 0.314222 0.572792
vt 0.302888 0.128104
vt 0.314222 0.060771
vt 0.737396 0.548664
vt 0.962778 0.524926
vt 0.950856 0.438010
vt 0.725474 0.461748
vt 0.302888 0.962778
vt 0.385650 0.962778
vt 0.378497 1.000000
vt 0.324450 1.000000
vt 0.285033 0.737396
vt 0.387438 0.738446
vt 0.737396 0.609512
vt 0.104812 0.485876
vt 0.545441 0.572792
vt 0.533519 0.485876
vt 0.679131 0.061362
vt 0.679131 -0.000000
vt 0.353846 0.485876
vt 0.425274 0.485876
vt 0.407407 0.525270
vt 0.392272 0.609512
vt 0.069689 0.556489
vt 0.069689 0.607840
vt 0.032286 0.607840
vt 0.032286 0.585457
vt 0.714967 0.032286
vt 0.714967 0.069689
vt 0.714967 0.556489
vt 0.378497 0.608830
vt 0.386387 0.553817
vt 0.324450 0.584851
vt 0.324450 0.608830
vt 1.000000 0.608830
vt 1.000000 0.584851
vt -0.000000 0.572792
vt 0.044041 0.485876
vt 0.076326 0.498541
vt 1.000000 0.553817
vt 0.582893 0.415450
vt 0.447031 0.438354
vt 0.331349 0.609512
vt 0.545441 0.609512
vt 0.306988 0.331349
vt 0.382913 0.334291
vt 0.388961 0.547386
vt 0.290131 0.545441
vt 0.334291 0.609512
vt 0.338368 0.498714
vt 0.550080 0.525270
vt 0.547386 0.609512
vt 0.457925 0.466902
vt 0.395988 0.497935
vt 0.131993 0.609512
vt 0.137382 0.525270
vt 0.572014 0.462971
vt 0.668691 0.485876
vt 0.582893 0.153035
vt 0.668691 0.105402
vt 0.668691 0.044041
vt 0.572014 0.066392
vt 0.447031 0.181423
vt 0.353846 0.104812
vt 0.342512 0.172145
vt 0.471882 0.727979
vt 0.356571 0.725474
vt 0.374426 0.950856
vt 0.469270 0.950856
vt 0.425274 0.054184
vt 0.105402 0.438354
vt 0.113730 0.469573
vt 0.469270 0.390488
vt 0.374426 0.438010
vt 0.468842 0.326446
vt 0.378526 0.319427
vt 0.361669 0.533519
vt 0.474107 0.538158
vt 0.181423 0.438354
vt 0.326446 0.411798
vt 0.704528 0.469573
vt 0.668691 0.438354
vt 0.302888 0.524926
vt 0.397732 0.477404
vt 0.538158 0.438354
vt 0.727979 0.414226
vt 0.950856 0.390488
s 1
usemtl Material.001
f 34/1/1 33/2/2 14/3/3 13/4/4
f 17/5/5 18/6/6 8/7/7 7/8/8
f 6/7/9 5/9/10 23/10/11 24/11/12
f 19/12/13 20/13/14 2/14/15 1/15/16
f 9/16/17 39/17/18 52/18/19 47/19/20
f 18/20/6 4/21/21 2/22/15 20/23/14
f 10/24/22 11/25/23 12/26/24 9/16/17
f 1/15/16 2/14/15 11/27/23 10/28/22
f 2/22/15 4/21/21 12/29/24 11/30/23
f 36/31/25 16/32/26 50/33/27 59/34/28
f 15/35/29 13/36/4 25/37/30 27/38/31
f 35/39/32 34/40/1 13/36/4 15/35/29
f 36/31/25 35/41/32 15/4/29 16/32/26
f 10/24/22 9/16/17 47/19/20 48/42/33
f 39/17/18 32/43/34 60/44/35 52/18/19
f 8/45/7 18/20/6 20/23/14 6/46/9
f 1/15/16 10/28/22 48/47/33 42/48/36
f 5/9/10 6/7/9 20/13/14 19/12/13
f 3/49/37 4/50/21 18/6/6 17/5/5
f 22/51/38 21/52/39 24/53/12 23/54/11
f 32/43/34 36/31/25 59/34/28 60/44/35
f 8/45/7 6/46/9 24/55/12 21/56/39
f 7/8/8 8/7/7 21/11/39 22/57/38
f 25/58/30 26/59/40 28/60/41 27/61/31
f 16/32/26 15/4/29 27/62/31 28/63/41
f 23/54/11 5/64/10 44/65/42 53/66/43
f 13/4/4 14/3/3 26/67/40 25/62/30
f 3/49/37 17/5/5 43/68/44 41/69/45
f 39/17/18 38/70/46 31/71/47 32/43/34
f 38/72/46 37/73/48 30/74/49 31/75/47
f 37/76/48 40/77/50 29/78/51 30/79/49
f 28/60/41 26/59/40 55/80/52 56/81/53
f 32/43/34 31/71/47 35/41/32 36/31/25
f 31/75/47 30/74/49 34/40/1 35/39/32
f 30/79/49 29/78/51 33/2/2 34/1/1
f 4/82/21 3/83/37 40/77/50 37/76/48
f 12/29/24 4/21/21 37/73/48 38/72/46
f 9/16/17 12/26/24 38/70/46 39/17/18
f 5/9/10 19/12/13 46/84/54 44/85/42
f 43/86/44 45/87/55 44/88/42 46/89/54
f 41/90/45 48/91/33 47/92/20
f 51/93/56 59/94/28 50/95/27 49/96/57
f 48/91/33 41/90/45 42/97/36
f 41/90/45 43/86/44 46/89/54 42/97/36
f 44/65/42 45/98/55 54/99/58 53/66/43
f 49/100/57 50/101/27 56/81/53 55/80/52
f 57/102/59 52/103/19 60/104/35 58/105/60
f 58/105/60 60/104/35 59/94/28 51/93/56
f 41/90/45 47/92/20 52/103/19 57/102/59
f 40/77/50 3/83/37 41/106/45 57/107/59
f 7/8/8 22/57/38 54/108/58 45/109/55
f 16/110/26 28/60/41 56/81/53 50/101/27
f 17/5/5 7/8/8 45/109/55 43/68/44
f 26/59/40 14/111/3 49/100/57 55/80/52
f 22/51/38 23/54/11 53/66/43 54/99/58
f 29/78/51 40/77/50 57/107/59 58/112/60
f 19/12/13 1/15/16 42/48/36 46/84/54
f 33/2/2 29/78/51 58/112/60 51/113/56
f 14/3/3 33/2/2 51/113/56 49/114/57
